<svg xmlns="http://www.w3.org/2000/svg" xmlns:xlink="http://www.w3.org/1999/xlink" xmlns:lucid="lucid" width="1381.25" height="441.07"><g transform="translate(-400 -380)" lucid:page-tab-id="0_0"><path d="M600 405c0-2.76 2.24-5 5-5h390c2.76 0 5 2.24 5 5v390c0 2.76-2.24 5-5 5H605c-2.76 0-5-2.24-5-5z" fill-opacity="0"/><path d="M614.85 400h3.94m7.87 0h3.94m7.88 0h3.94m7.88 0h3.94m7.88 0h3.94m7.88 0h3.94m7.88 0h3.94m7.88 0h3.94m7.87 0h3.93m7.88 0h3.95m7.88 0h3.94m7.88 0h3.94m7.87 0h3.94m7.88 0h3.94m7.88 0h3.94m7.88 0h3.94m7.88 0h3.94m7.88 0h3.94m7.88 0h3.94m7.87 0h3.93m7.88 0h3.95m7.88 0h3.94m7.88 0h3.94m7.87 0h3.94m7.88 0h3.94m7.88 0h3.94m7.88 0h3.94m7.88 0h3.94m7.88 0h3.94m7.88 0h3.94m7.87 0h3.93m7.88 0h3.95m7.88 0H995l2.95.96 1.8 2.46.25 1.58v1.97m0 7.88v3.94m0 7.87v3.94m0 7.88v3.94m0 7.88v3.94m0 7.88v3.94m0 7.88v3.94m0 7.88v3.94m0 7.88v3.94m0 7.87v3.93m0 7.88v3.95m0 7.88v3.94m0 7.88v3.94m0 7.87v3.94m0 7.88v3.94m0 7.88v3.94m0 7.88v3.94m0 7.88v3.94m0 7.88v3.94m0 7.88v3.94m0 7.87v3.93m0 7.88v3.95m0 7.88v3.94m0 7.88v3.94m0 7.87v3.94m0 7.88v3.94m0 7.88v3.94m0 7.88v3.94m0 7.88v3.94m0 7.88v3.94m0 7.88v3.94m0 7.87v3.93m0 7.88v3.95m0 7.88V795l-.96 2.95-2.46 1.8-1.58.25h-1.97m-7.88 0h-3.94m-7.87 0h-3.94m-7.88 0h-3.94m-7.88 0h-3.94m-7.88 0h-3.94m-7.88 0h-3.94m-7.88 0h-3.94m-7.88 0h-3.94m-7.87 0h-3.93m-7.88 0h-3.95m-7.88 0h-3.94m-7.88 0h-3.94m-7.87 0h-3.94m-7.88 0h-3.94m-7.88 0h-3.94m-7.88 0h-3.94m-7.88 0h-3.94m-7.88 0h-3.94m-7.88 0h-3.94m-7.87 0h-3.93m-7.88 0h-3.95m-7.88 0h-3.94m-7.88 0h-3.94m-7.87 0h-3.94m-7.88 0h-3.94m-7.88 0h-3.94m-7.88 0h-3.94m-7.88 0h-3.94m-7.88 0h-3.94m-7.88 0h-3.94m-7.87 0h-3.93m-7.88 0h-3.95m-7.88 0H605l-2.95-.96-1.8-2.46L600 795v-1.97m0-7.88v-3.94m0-7.87v-3.94m0-7.88v-3.94m0-7.88v-3.94m0-7.88v-3.94m0-7.88v-3.94m0-7.88v-3.94m0-7.88v-3.94m0-7.87v-3.93m0-7.88v-3.95m0-7.88v-3.94m0-7.88v-3.94m0-7.87v-3.94m0-7.88v-3.94m0-7.88v-3.94m0-7.88v-3.94m0-7.88v-3.94m0-7.88v-3.94m0-7.88v-3.94m0-7.87v-3.93m0-7.88v-3.95m0-7.88v-3.94m0-7.88v-3.94m0-7.87v-3.94m0-7.88v-3.94m0-7.88v-3.94m0-7.88v-3.94m0-7.88v-3.94m0-7.88v-3.94m0-7.88v-3.94m0-7.87v-3.93m0-7.88v-3.95m0-7.88V405l.96-2.95 2.46-1.8L605 400h1.97" stroke="#666" stroke-width="2" fill="none"/><path d="M530 460c16.57 0 30 13.43 30 30v80c0 16.57-13.43 30-30 30h-80c-16.57 0-30-13.43-30-30v-80c0-16.57 13.43-30 30-30z" stroke="#83bbe5" stroke-width="2" fill="#c1e4f7"/><path d="M420 494.2c0-2.77 2.24-5 5-5h130c2.76 0 5 2.23 5 5v73.1c0 2.76-2.24 5-5 5H425c-2.76 0-5-2.24-5-5z" stroke="#000" stroke-opacity="0" stroke-width="2" fill="#fff" fill-opacity="0"/><use xlink:href="#a" transform="matrix(1,0,0,1,425,494.18936745587723) translate(19.525 30.5875)"/><use xlink:href="#b" transform="matrix(1,0,0,1,425,494.18936745587723) translate(38.55 52.1875)"/><path d="M790 700c16.57 0 30 13.43 30 30v41.07c0 16.57-13.43 30-30 30H670c-16.57 0-30-13.43-30-30V730c0-16.57 13.43-30 30-30z" stroke="#83bbe5" stroke-width="2" fill="#c1e4f7"/><path d="M640 726.07c0-2.76 2.24-5 5-5h170c2.76 0 5 2.24 5 5v50c0 2.76-2.24 5-5 5H645c-2.76 0-5-2.24-5-5z" stroke="#000" stroke-opacity="0" stroke-width="2" fill="#fff" fill-opacity="0"/><use xlink:href="#c" transform="matrix(1,0,0,1,645,726.0733333332464) translate(31.599999999999994 17.525)"/><use xlink:href="#d" transform="matrix(1,0,0,1,645,726.0733333332464) translate(44.599999999999994 39.125)"/><path d="M896 459.2c35.2 0 64 31.36 64 70s-28.8 70-64 70H704c-35.2 0-64-31.36-64-70s28.8-70 64-70z" stroke="#666" stroke-width="2" fill="#e5e5e5"/><path d="M840 574.57c0 2.55-26.86 4.63-60 4.63s-60-2.08-60-4.63v-37c0-2.55 26.86-4.62 60-4.62s60 2.07 60 4.62z" stroke="#000" stroke-width="2" fill="#fff"/><path d="M840 537.57c0 2.55-26.86 4.63-60 4.63s-60-2.08-60-4.63" stroke="#000" stroke-width="2" fill="none"/><path d="M680 484.2c0-2.77 2.24-5 5-5h230c2.76 0 5 2.23 5 5v50c0 2.76-2.24 5-5 5H685c-2.76 0-5-2.24-5-5z" stroke="#000" stroke-opacity="0" stroke-width="2" fill="#fff" fill-opacity="0"/><use xlink:href="#e" transform="matrix(1,0,0,1,685,484.1950000000652) translate(27.099999999999994 30.025)"/><use xlink:href="#f" transform="matrix(1,0,0,1,685,484.1950000000652) translate(72.1 30.025)"/><use xlink:href="#g" transform="matrix(1,0,0,1,685,484.1950000000652) translate(148.05 30.025)"/><path d="M930 560.8c16.57 0 30 13.44 30 30v120c0 16.57-13.43 30-30 30h-60c-16.57 0-30-13.43-30-30v-120c0-16.56 13.43-30 30-30z" stroke="#83bbe5" stroke-width="2" fill="#fff" fill-opacity=".95"/><path d="M850 572.2c0-2.75 2.24-5 5-5h90c2.76 0 5 2.25 5 5v96.86c0 2.76-2.24 5-5 5h-90c-2.76 0-5-2.24-5-5z" stroke="#000" stroke-opacity="0" stroke-width="2" fill="#fff" fill-opacity=".95"/><use xlink:href="#h" transform="matrix(1,0,0,1,855,572.2090226749207) translate(23.525 14.4)"/><use xlink:href="#i" transform="matrix(1,0,0,1,855,572.2090226749207) translate(-8.400000000000006 36)"/><path d="M862.5 620.8c-3.45 0-6.25 2.8-6.25 6.25v37.5c0 3.46-2.8 6.25-6.25 6.25 3.45 0 6.25 2.8 6.25 6.25v37.5c0 3.46 2.8 6.25 6.25 6.25m75 0c3.45 0 6.25-2.8 6.25-6.25v-37.5c0-3.45 2.8-6.25 6.25-6.25-3.45 0-6.25-2.8-6.25-6.25v-37.5c0-3.45-2.8-6.25-6.25-6.25" stroke="#b2d6ef" stroke-width="2" fill="none"/><path d="M860 645.8c0-2.76 2.24-5 5-5h70c2.76 0 5 2.24 5 5v50c0 2.77-2.24 5-5 5h-70c-2.76 0-5-2.23-5-5z" stroke="#000" stroke-opacity="0" stroke-width="2" fill="#fff" fill-opacity="0"/><use xlink:href="#j" transform="matrix(1,0,0,1,865,645.8049999999348) translate(15 17.525)"/><use xlink:href="#k" transform="matrix(1,0,0,1,865,645.8049999999348) translate(0.5499999999999972 39.125)"/><path d="M1056.38 777.07H821v-2h235.38zm204.62-5.92l-.3 1.9-2.13 2.9-3.4 1.12h-148.9v-2h148.57l2.5-.8 1.46-2 .2-1.28v-11.5h2z" fill="#0c7cba"/><path d="M821.03 777.07h-1.36l.33-1v-1h1.03zM1264.64 758.5h-9.28l4.64-14.26z" fill="#0c7cba"/><path d="M1266 759.5h-12l6-18.5zm-9.26-2h6.52l-3.26-10.03z" fill="#0c7cba"/><use xlink:href="#l" transform="matrix(1,0,0,1,1056.3833333333332,765.2733333332465) translate(0 14.4)"/><path d="M704.56 698v-79.3" stroke="#666" stroke-width="2" fill="none"/><path d="M705.56 699h-2v-1.03h2z" fill="#666"/><path d="M704.56 603.43l4.63 14.27h-9.28z" stroke="#666" stroke-width="2" fill="#666"/><use xlink:href="#m" transform="matrix(1,0,0,1,712.5551053484602,638.7975000000326) translate(0 14.4)"/><path d="M1180 405c0-2.76 2.24-5 5-5h390c2.76 0 5 2.24 5 5v390c0 2.76-2.24 5-5 5h-390c-2.76 0-5-2.24-5-5z" fill-opacity="0"/><path d="M1194.85 400h3.94m7.87 0h3.94m7.88 0h3.94m7.88 0h3.94m7.88 0h3.94m7.88 0h3.94m7.88 0h3.94m7.88 0h3.94m7.87 0h3.93m7.88 0h3.95m7.88 0h3.94m7.88 0h3.94m7.87 0h3.94m7.88 0h3.94m7.88 0h3.94m7.88 0h3.94m7.88 0h3.94m7.88 0h3.94m7.88 0h3.94m7.87 0h3.93m7.88 0h3.95m7.88 0h3.94m7.88 0h3.94m7.87 0h3.94m7.88 0h3.94m7.88 0h3.94m7.88 0h3.94m7.88 0h3.94m7.88 0h3.94m7.88 0h3.94m7.87 0h3.93m7.88 0h3.95m7.88 0h1.97l2.95.96 1.8 2.46.25 1.58v1.97m0 7.88v3.94m0 7.87v3.94m0 7.88v3.94m0 7.88v3.94m0 7.88v3.94m0 7.88v3.94m0 7.88v3.94m0 7.88v3.94m0 7.87v3.93m0 7.88v3.95m0 7.88v3.94m0 7.88v3.94m0 7.87v3.94m0 7.88v3.94m0 7.88v3.94m0 7.88v3.94m0 7.88v3.94m0 7.88v3.94m0 7.88v3.94m0 7.87v3.93m0 7.88v3.95m0 7.88v3.94m0 7.88v3.94m0 7.87v3.94m0 7.88v3.94m0 7.88v3.94m0 7.88v3.94m0 7.88v3.94m0 7.88v3.94m0 7.88v3.94m0 7.87v3.93m0 7.88v3.95m0 7.88V795l-.96 2.95-2.46 1.8-1.58.25h-1.97m-7.88 0h-3.94m-7.87 0h-3.94m-7.88 0h-3.94m-7.88 0h-3.94m-7.88 0h-3.94m-7.88 0h-3.94m-7.88 0h-3.94m-7.88 0h-3.94m-7.87 0h-3.93m-7.88 0h-3.95m-7.88 0h-3.94m-7.88 0h-3.94m-7.87 0h-3.94m-7.88 0h-3.94m-7.88 0h-3.94m-7.88 0h-3.94m-7.88 0h-3.94m-7.88 0h-3.94m-7.88 0h-3.94m-7.87 0h-3.93m-7.88 0h-3.95m-7.88 0h-3.94m-7.88 0h-3.94m-7.87 0h-3.94m-7.88 0h-3.94m-7.88 0h-3.94m-7.88 0h-3.94m-7.88 0h-3.94m-7.88 0h-3.94m-7.88 0h-3.94m-7.87 0h-3.93m-7.88 0h-3.95m-7.88 0H1185l-2.95-.96-1.8-2.46-.25-1.58v-1.97m0-7.88v-3.94m0-7.87v-3.94m0-7.88v-3.94m0-7.88v-3.94m0-7.88v-3.94m0-7.88v-3.94m0-7.88v-3.94m0-7.88v-3.94m0-7.87v-3.93m0-7.88v-3.95m0-7.88v-3.94m0-7.88v-3.94m0-7.87v-3.94m0-7.88v-3.94m0-7.88v-3.94m0-7.88v-3.94m0-7.88v-3.94m0-7.88v-3.94m0-7.88v-3.94m0-7.87v-3.93m0-7.88v-3.95m0-7.88v-3.94m0-7.88v-3.94m0-7.87v-3.94m0-7.88v-3.94m0-7.88v-3.94m0-7.88v-3.94m0-7.88v-3.94m0-7.88v-3.94m0-7.88v-3.94m0-7.87v-3.93m0-7.88v-3.95m0-7.88V405l.96-2.95 2.46-1.8 1.58-.25h1.97" stroke="#666" stroke-width="2" fill="none"/><path d="M1731.25 460.74c16.57 0 30 13.43 30 30v80c0 16.57-13.43 30-30 30h-80c-16.57 0-30-13.43-30-30v-80c0-16.57 13.43-30 30-30z" stroke="#83bbe5" stroke-width="2" fill="#c1e4f7"/><path d="M1761.25 494.93c0-2.76-2.24-5-5-5h-130c-2.76 0-5 2.24-5 5v73.1c0 2.77 2.24 5 5 5h130c2.76 0 5-2.23 5-5z" stroke="#000" stroke-opacity="0" stroke-width="2" fill="#fff" fill-opacity="0"/><use xlink:href="#a" transform="matrix(1,0,0,1,1626.25,494.9327221158005) translate(19.525 30.5875)"/><use xlink:href="#b" transform="matrix(1,0,0,1,1626.25,494.9327221158005) translate(38.55 52.1875)"/><path d="M1490 700c16.57 0 30 13.43 30 30v41.07c0 16.57-13.43 30-30 30h-120c-16.57 0-30-13.43-30-30V730c0-16.57 13.43-30 30-30z" stroke="#83bbe5" stroke-width="2" fill="#c1e4f7"/><path d="M1520 726.07c0-2.76-2.24-5-5-5h-170c-2.76 0-5 2.24-5 5v50c0 2.76 2.24 5 5 5h170c2.76 0 5-2.24 5-5z" stroke="#000" stroke-opacity="0" stroke-width="2" fill="#fff" fill-opacity="0"/><use xlink:href="#c" transform="matrix(1,0,0,1,1345,726.0733333332464) translate(31.599999999999994 17.525)"/><use xlink:href="#d" transform="matrix(1,0,0,1,1345,726.0733333332464) translate(44.599999999999994 39.125)"/><path d="M1456 447.7c35.2 0 64 31.36 64 70s-28.8 70-64 70h-192c-35.2 0-64-31.36-64-70s28.8-70 64-70z" stroke="#666" stroke-width="2" fill="#e5e5e5"/><path d="M1327 563.08c0 2.55 26.86 4.62 60 4.62s60-2.07 60-4.62v-37c0-2.56-26.86-4.63-60-4.63s-60 2.07-60 4.63z" stroke="#000" stroke-width="2" fill="#fff"/><path d="M1327 526.08c0 2.55 26.86 4.62 60 4.62s60-2.07 60-4.62" stroke="#000" stroke-width="2" fill="none"/><path d="M1480 472.7c0-2.76-2.24-5-5-5h-230c-2.76 0-5 2.24-5 5v50c0 2.76 2.24 5 5 5h230c2.76 0 5-2.24 5-5z" stroke="#000" stroke-opacity="0" stroke-width="2" fill="#fff" fill-opacity="0"/><use xlink:href="#e" transform="matrix(1,0,0,1,1245,472.7026581360308) translate(17.125 30.025)"/><use xlink:href="#f" transform="matrix(1,0,0,1,1245,472.7026581360308) translate(62.125 30.025)"/><use xlink:href="#n" transform="matrix(1,0,0,1,1245,472.7026581360308) translate(138.075 30.025)"/><path d="M1290 560c16.57 0 30 13.43 30 30v120c0 16.57-13.43 30-30 30h-60c-16.57 0-30-13.43-30-30V590c0-16.57 13.43-30 30-30z" stroke="#83bbe5" stroke-width="2" fill="#fff" fill-opacity=".95"/><path d="M1310 571.4c0-2.76-2.24-5-5-5h-90c-2.76 0-5 2.24-5 5v96.86c0 2.76 2.24 5 5 5h90c2.76 0 5-2.24 5-5z" stroke="#000" stroke-opacity="0" stroke-width="2" fill="#fff" fill-opacity=".95"/><use xlink:href="#h" transform="matrix(1,0,0,1,1215,571.4040226749859) translate(23.525 14.4)"/><use xlink:href="#i" transform="matrix(1,0,0,1,1215,571.4040226749859) translate(-8.400000000000006 36)"/><path d="M1222.5 620c-3.45 0-6.25 2.8-6.25 6.25v37.5c0 3.45-2.8 6.25-6.25 6.25 3.45 0 6.25 2.8 6.25 6.25v37.5c0 3.45 2.8 6.25 6.25 6.25m75 0c3.45 0 6.25-2.8 6.25-6.25v-37.5c0-3.45 2.8-6.25 6.25-6.25-3.45 0-6.25-2.8-6.25-6.25v-37.5c0-3.45-2.8-6.25-6.25-6.25" stroke="#b2d6ef" stroke-width="2" fill="none"/><path d="M1300 645c0-2.76-2.24-5-5-5h-70c-2.76 0-5 2.24-5 5v50c0 2.76 2.24 5 5 5h70c2.76 0 5-2.24 5-5z" stroke="#000" stroke-opacity="0" stroke-width="2" fill="#fff" fill-opacity="0"/><use xlink:href="#j" transform="matrix(1,0,0,1,1225,645) translate(15 17.525)"/><use xlink:href="#k" transform="matrix(1,0,0,1,1225,645) translate(0.5499999999999972 39.125)"/><path d="M1260 565.4v-15.82c0-2.76 2.24-5 5-5h42.5" stroke="#666" stroke-width="2" fill="none"/><path d="M1261 566.4h-2v-1.02h2z" fill="#666"/><path d="M1322.77 544.58l-14.27 4.63v-9.26z" stroke="#666" stroke-width="2" fill="#666"/><path d="M1046.6 499.67h-21.52l-1.26.2-2 1.46-.82 2.5v242.32l-.3 1.9-2.13 2.9-3.4 1.12H821v-2h193.84l2.5-.8 1.46-2 .2-1.28V503.5l1.1-3.4 2.92-2.13 1.9-.3h21.68zm113.9 0h-15.1v-2h15.1z" fill="#0c7cba"/><path d="M821.03 752.07H820v-2h1.03zM1175.76 498.67l-14.26 4.63v-9.27z" fill="#0c7cba"/><path d="M1179 498.67l-18.5 6v-12.02zm-16.5 3.26l10.03-3.26-10.03-3.26z" fill="#0c7cba"/><g><use xlink:href="#o" transform="matrix(1,0,0,1,1046.6,487.8666666666667) translate(0 14.4)"/></g><path d="M700 649.6c0 5.52-4.48 10-10 10s-10-4.48-10-10c0-5.53 4.48-10 10-10s10 4.47 10 10z" stroke="#83bbe5" stroke-width="2" fill="#0c7cba"/><g><use xlink:href="#p" transform="matrix(1,0,0,1,685,644.5975000000326) translate(1.2962962962962958 10.666666666666668)"/></g><path d="M1060 470c0 5.52-4.48 10-10 10s-10-4.48-10-10 4.48-10 10-10 10 4.48 10 10z" stroke="#83bbe5" stroke-width="2" fill="#0c7cba"/><g><use xlink:href="#q" transform="matrix(1,0,0,1,1045,465) translate(1.2962962962962958 10.666666666666668)"/></g><path d="M1080 751.07c0 5.53-4.48 10-10 10s-10-4.47-10-10c0-5.52 4.48-10 10-10s10 4.48 10 10z" stroke="#83bbe5" stroke-width="2" fill="#0c7cba"/><g><use xlink:href="#r" transform="matrix(1,0,0,1,1065,746.0733333332464) translate(1.2962962962962958 10.666666666666668)"/></g><path d="M1300 529.2c0 5.52-4.48 10-10 10s-10-4.48-10-10c0-5.53 4.48-10 10-10s10 4.47 10 10z" stroke="#83bbe5" stroke-width="2" fill="#0c7cba"/><g><use xlink:href="#s" transform="matrix(1,0,0,1,1285,524.1950000000652) translate(1.2962962962962958 10.666666666666668)"/></g><defs><path d="M212-179c-10-28-35-45-73-45-59 0-87 40-87 99 0 60 29 101 89 101 43 0 62-24 78-52l27 14C228-24 195 4 139 4 59 4 22-46 18-125c-6-104 99-153 187-111 19 9 31 26 39 46" id="t"/><path d="M100-194c62-1 85 37 85 99 1 63-27 99-86 99S16-35 15-95c0-66 28-99 85-99zM99-20c44 1 53-31 53-75 0-43-8-75-51-75s-53 32-53 75 10 74 51 75" id="u"/><path d="M84 4C-5 8 30-112 23-190h32v120c0 31 7 50 39 49 72-2 45-101 50-169h31l1 190h-30c-1-10 1-25-2-33-11 22-28 36-60 37" id="v"/><path d="M96-169c-40 0-48 33-48 73s9 75 48 75c24 0 41-14 43-38l32 2c-6 37-31 61-74 61-59 0-76-41-82-99-10-93 101-131 147-64 4 7 5 14 7 22l-32 3c-4-21-16-35-41-35" id="w"/><path d="M106-169C34-169 62-67 57 0H25v-261h32l-1 103c12-21 28-36 61-36 89 0 53 116 60 194h-32v-121c2-32-8-49-39-48" id="x"/><path d="M115-194c53 0 69 39 70 98 0 66-23 100-70 100C84 3 66-7 56-30L54 0H23l1-261h32v101c10-23 28-34 59-34zm-8 174c40 0 45-34 45-75 0-40-5-75-45-74-42 0-51 32-51 76 0 43 10 73 51 73" id="y"/><path d="M141-36C126-15 110 5 73 4 37 3 15-17 15-53c-1-64 63-63 125-63 3-35-9-54-41-54-24 1-41 7-42 31l-33-3c5-37 33-52 76-52 45 0 72 20 72 64v82c-1 20 7 32 28 27v20c-31 9-61-2-59-35zM48-53c0 20 12 33 32 33 41-3 63-29 60-74-43 2-92-5-92 41" id="z"/><path d="M135-143c-3-34-86-38-87 0 15 53 115 12 119 90S17 21 10-45l28-5c4 36 97 45 98 0-10-56-113-15-118-90-4-57 82-63 122-42 12 7 21 19 24 35" id="A"/><path d="M100-194c63 0 86 42 84 106H49c0 40 14 67 53 68 26 1 43-12 49-29l28 8c-11 28-37 45-77 45C44 4 14-33 15-96c1-61 26-98 85-98zm52 81c6-60-76-77-97-28-3 7-6 17-6 28h103" id="B"/><g id="a"><use transform="matrix(0.05,0,0,0.05,0,0)" xlink:href="#t"/><use transform="matrix(0.05,0,0,0.05,12.950000000000001,0)" xlink:href="#u"/><use transform="matrix(0.05,0,0,0.05,22.950000000000003,0)" xlink:href="#v"/><use transform="matrix(0.05,0,0,0.05,32.95,0)" xlink:href="#w"/><use transform="matrix(0.05,0,0,0.05,41.95,0)" xlink:href="#x"/><use transform="matrix(0.05,0,0,0.05,51.95,0)" xlink:href="#y"/><use transform="matrix(0.05,0,0,0.05,61.95,0)" xlink:href="#z"/><use transform="matrix(0.05,0,0,0.05,71.95,0)" xlink:href="#A"/><use transform="matrix(0.05,0,0,0.05,80.95,0)" xlink:href="#B"/></g><path d="M185-189c-5-48-123-54-124 2 14 75 158 14 163 119 3 78-121 87-175 55-17-10-28-26-33-46l33-7c5 56 141 63 141-1 0-78-155-14-162-118-5-82 145-84 179-34 5 7 8 16 11 25" id="C"/><path d="M114-163C36-179 61-72 57 0H25l-1-190h30c1 12-1 29 2 39 6-27 23-49 58-41v29" id="D"/><path d="M108 0H70L1-190h34L89-25l56-165h34" id="E"/><g id="b"><use transform="matrix(0.05,0,0,0.05,0,0)" xlink:href="#C"/><use transform="matrix(0.05,0,0,0.05,12,0)" xlink:href="#B"/><use transform="matrix(0.05,0,0,0.05,22,0)" xlink:href="#D"/><use transform="matrix(0.05,0,0,0.05,27.950000000000003,0)" xlink:href="#E"/><use transform="matrix(0.05,0,0,0.05,36.95,0)" xlink:href="#B"/><use transform="matrix(0.05,0,0,0.05,46.95,0)" xlink:href="#D"/></g><path d="M143 4C61 4 22-44 18-125c-5-107 100-154 193-111 17 8 29 25 37 43l-32 9c-13-25-37-40-76-40-61 0-88 39-88 99 0 61 29 100 91 101 35 0 62-11 79-27v-45h-74v-28h105v86C228-13 192 4 143 4" id="F"/><path d="M16-82v-28h88v28H16" id="G"/><path d="M233-177c-1 41-23 64-60 70L243 0h-38l-65-103H63V0H30v-248c88 3 205-21 203 71zM63-129c60-2 137 13 137-47 0-61-80-42-137-45v92" id="H"/><path d="M115-194c55 1 70 41 70 98S169 2 115 4C84 4 66-9 55-30l1 105H24l-1-265h31l2 30c10-21 28-34 59-34zm-8 174c40 0 45-34 45-75s-6-73-45-74c-42 0-51 32-51 76 0 43 10 73 51 73" id="I"/><path d="M24 0v-261h32V0H24" id="J"/><path d="M24-231v-30h32v30H24zM24 0v-190h32V0H24" id="K"/><path d="M59-47c-2 24 18 29 38 22v24C64 9 27 4 27-40v-127H5v-23h24l9-43h21v43h35v23H59v120" id="L"/><g id="c"><use transform="matrix(0.05,0,0,0.05,0,0)" xlink:href="#C"/><use transform="matrix(0.05,0,0,0.05,12,0)" xlink:href="#F"/><use transform="matrix(0.05,0,0,0.05,26,0)" xlink:href="#G"/><use transform="matrix(0.05,0,0,0.05,31.950000000000003,0)" xlink:href="#H"/><use transform="matrix(0.05,0,0,0.05,44.9,0)" xlink:href="#B"/><use transform="matrix(0.05,0,0,0.05,54.900000000000006,0)" xlink:href="#I"/><use transform="matrix(0.05,0,0,0.05,64.9,0)" xlink:href="#J"/><use transform="matrix(0.05,0,0,0.05,68.85000000000001,0)" xlink:href="#K"/><use transform="matrix(0.05,0,0,0.05,72.80000000000001,0)" xlink:href="#w"/><use transform="matrix(0.05,0,0,0.05,81.80000000000001,0)" xlink:href="#z"/><use transform="matrix(0.05,0,0,0.05,91.80000000000001,0)" xlink:href="#L"/><use transform="matrix(0.05,0,0,0.05,96.80000000000001,0)" xlink:href="#B"/></g><g id="d"><use transform="matrix(0.05,0,0,0.05,0,0)" xlink:href="#H"/><use transform="matrix(0.05,0,0,0.05,12.950000000000001,0)" xlink:href="#B"/><use transform="matrix(0.05,0,0,0.05,22.950000000000003,0)" xlink:href="#I"/><use transform="matrix(0.05,0,0,0.05,32.95,0)" xlink:href="#J"/><use transform="matrix(0.05,0,0,0.05,36.900000000000006,0)" xlink:href="#K"/><use transform="matrix(0.05,0,0,0.05,40.85000000000001,0)" xlink:href="#w"/><use transform="matrix(0.05,0,0,0.05,49.85000000000001,0)" xlink:href="#z"/><use transform="matrix(0.05,0,0,0.05,59.85,0)" xlink:href="#L"/><use transform="matrix(0.05,0,0,0.05,64.85000000000001,0)" xlink:href="#u"/><use transform="matrix(0.05,0,0,0.05,74.85000000000001,0)" xlink:href="#D"/></g><path d="M179-190L93 31C79 59 56 82 12 73V49c39 6 53-20 64-50L1-190h34L92-34l54-156h33" id="M"/><path d="M117-194c89-4 53 116 60 194h-32v-121c0-31-8-49-39-48C34-167 62-67 57 0H25l-1-190h30c1 10-1 24 2 32 11-22 29-35 61-36" id="N"/><g id="e"><use transform="matrix(0.05,0,0,0.05,0,0)" xlink:href="#C"/><use transform="matrix(0.05,0,0,0.05,12,0)" xlink:href="#M"/><use transform="matrix(0.05,0,0,0.05,21,0)" xlink:href="#N"/><use transform="matrix(0.05,0,0,0.05,31,0)" xlink:href="#w"/></g><path d="M206 0h-36l-40-164L89 0H53L-1-190h32L70-26l43-164h34l41 164 42-164h31" id="O"/><g id="f"><use transform="matrix(0.05,0,0,0.05,0,0)" xlink:href="#F"/><use transform="matrix(0.05,0,0,0.05,14,0)" xlink:href="#z"/><use transform="matrix(0.05,0,0,0.05,24,0)" xlink:href="#L"/><use transform="matrix(0.05,0,0,0.05,29,0)" xlink:href="#B"/><use transform="matrix(0.05,0,0,0.05,39,0)" xlink:href="#O"/><use transform="matrix(0.05,0,0,0.05,51.95,0)" xlink:href="#z"/><use transform="matrix(0.05,0,0,0.05,61.95,0)" xlink:href="#M"/></g><path d="M87 75C49 33 22-17 22-94c0-76 28-126 65-167h31c-38 41-64 92-64 168S80 34 118 75H87" id="P"/><path d="M30 0v-248h33v221h125V0H30" id="Q"/><path d="M33-261c38 41 65 92 65 168S71 34 33 75H2C39 34 66-17 66-93S39-220 2-261h31" id="R"/><g id="g"><use transform="matrix(0.05,0,0,0.05,0,0)" xlink:href="#P"/><use transform="matrix(0.05,0,0,0.05,5.95,0)" xlink:href="#Q"/><use transform="matrix(0.05,0,0,0.05,15.949999999999998,0)" xlink:href="#u"/><use transform="matrix(0.05,0,0,0.05,25.950000000000003,0)" xlink:href="#w"/><use transform="matrix(0.05,0,0,0.05,34.95,0)" xlink:href="#z"/><use transform="matrix(0.05,0,0,0.05,44.95,0)" xlink:href="#J"/><use transform="matrix(0.05,0,0,0.05,48.900000000000006,0)" xlink:href="#R"/></g><path d="M266 0h-40l-56-210L115 0H75L2-248h35L96-30l15-64 43-154h32l59 218 59-218h35" id="S"/><g id="h"><use transform="matrix(0.05,0,0,0.05,0,0)" xlink:href="#C"/><use transform="matrix(0.05,0,0,0.05,12,0)" xlink:href="#F"/><use transform="matrix(0.05,0,0,0.05,26,0)" xlink:href="#S"/></g><path d="M101-234c-31-9-42 10-38 44h38v23H63V0H32v-167H5v-23h27c-7-52 17-82 69-68v24" id="T"/><path d="M177-190C167-65 218 103 67 71c-23-6-38-20-44-43l32-5c15 47 100 32 89-28v-30C133-14 115 1 83 1 29 1 15-40 15-95c0-56 16-97 71-98 29-1 48 16 59 35 1-10 0-23 2-32h30zM94-22c36 0 50-32 50-73 0-42-14-75-50-75-39 0-46 34-46 75s6 73 46 73" id="U"/><g id="i"><use transform="matrix(0.05,0,0,0.05,0,0)" xlink:href="#t"/><use transform="matrix(0.05,0,0,0.05,12.950000000000001,0)" xlink:href="#u"/><use transform="matrix(0.05,0,0,0.05,22.950000000000003,0)" xlink:href="#N"/><use transform="matrix(0.05,0,0,0.05,32.95,0)" xlink:href="#T"/><use transform="matrix(0.05,0,0,0.05,37.95,0)" xlink:href="#K"/><use transform="matrix(0.05,0,0,0.05,41.900000000000006,0)" xlink:href="#U"/><use transform="matrix(0.05,0,0,0.05,51.900000000000006,0)" xlink:href="#v"/><use transform="matrix(0.05,0,0,0.05,61.900000000000006,0)" xlink:href="#D"/><use transform="matrix(0.05,0,0,0.05,67.85000000000001,0)" xlink:href="#z"/><use transform="matrix(0.05,0,0,0.05,77.85000000000001,0)" xlink:href="#L"/><use transform="matrix(0.05,0,0,0.05,82.85000000000001,0)" xlink:href="#K"/><use transform="matrix(0.05,0,0,0.05,86.80000000000001,0)" xlink:href="#u"/><use transform="matrix(0.05,0,0,0.05,96.80000000000001,0)" xlink:href="#N"/></g><g id="j"><use transform="matrix(0.05,0,0,0.05,0,0)" xlink:href="#C"/><use transform="matrix(0.05,0,0,0.05,12,0)" xlink:href="#M"/><use transform="matrix(0.05,0,0,0.05,21,0)" xlink:href="#N"/><use transform="matrix(0.05,0,0,0.05,31,0)" xlink:href="#w"/></g><path d="M63-220v92h138v28H63V0H30v-248h175v28H63" id="V"/><g id="k"><use transform="matrix(0.05,0,0,0.05,0,0)" xlink:href="#V"/><use transform="matrix(0.05,0,0,0.05,10.950000000000001,0)" xlink:href="#v"/><use transform="matrix(0.05,0,0,0.05,20.950000000000003,0)" xlink:href="#N"/><use transform="matrix(0.05,0,0,0.05,30.950000000000003,0)" xlink:href="#w"/><use transform="matrix(0.05,0,0,0.05,39.95,0)" xlink:href="#L"/><use transform="matrix(0.05,0,0,0.05,44.95,0)" xlink:href="#K"/><use transform="matrix(0.05,0,0,0.05,48.900000000000006,0)" xlink:href="#u"/><use transform="matrix(0.05,0,0,0.05,58.900000000000006,0)" xlink:href="#N"/></g><path d="M30-248c87 1 191-15 191 75 0 78-77 80-158 76V0H30v-248zm33 125c57 0 124 11 124-50 0-59-68-47-124-48v98" id="W"/><path d="M232-93c-1 65-40 97-104 97C67 4 28-28 28-90v-158h33c8 89-33 224 67 224 102 0 64-133 71-224h33v155" id="X"/><path d="M197 0v-115H63V0H30v-248h33v105h134v-105h34V0h-34" id="Y"/><g id="l"><use transform="matrix(0.05,0,0,0.05,0,0)" xlink:href="#W"/><use transform="matrix(0.05,0,0,0.05,12,0)" xlink:href="#X"/><use transform="matrix(0.05,0,0,0.05,24.950000000000003,0)" xlink:href="#C"/><use transform="matrix(0.05,0,0,0.05,36.95,0)" xlink:href="#Y"/></g><g id="m"><use transform="matrix(0.05,0,0,0.05,0,0)" xlink:href="#t"/><use transform="matrix(0.05,0,0,0.05,12.950000000000001,0)" xlink:href="#x"/><use transform="matrix(0.05,0,0,0.05,22.950000000000003,0)" xlink:href="#z"/><use transform="matrix(0.05,0,0,0.05,32.95,0)" xlink:href="#N"/><use transform="matrix(0.05,0,0,0.05,42.95,0)" xlink:href="#U"/><use transform="matrix(0.05,0,0,0.05,52.95,0)" xlink:href="#B"/><use transform="matrix(0.05,0,0,0.05,62.95,0)" xlink:href="#A"/></g><path d="M210-169c-67 3-38 105-44 169h-31v-121c0-29-5-50-35-48C34-165 62-65 56 0H25l-1-190h30c1 10-1 24 2 32 10-44 99-50 107 0 11-21 27-35 58-36 85-2 47 119 55 194h-31v-121c0-29-5-49-35-48" id="Z"/><g id="n"><use transform="matrix(0.05,0,0,0.05,0,0)" xlink:href="#P"/><use transform="matrix(0.05,0,0,0.05,5.95,0)" xlink:href="#H"/><use transform="matrix(0.05,0,0,0.05,18.900000000000002,0)" xlink:href="#B"/><use transform="matrix(0.05,0,0,0.05,28.900000000000002,0)" xlink:href="#Z"/><use transform="matrix(0.05,0,0,0.05,43.85,0)" xlink:href="#u"/><use transform="matrix(0.05,0,0,0.05,53.85,0)" xlink:href="#L"/><use transform="matrix(0.05,0,0,0.05,58.85,0)" xlink:href="#B"/><use transform="matrix(0.05,0,0,0.05,68.85,0)" xlink:href="#R"/></g><path d="M30 0v-248h187v28H63v79h144v27H63v87h162V0H30" id="aa"/><path d="M137 0h-34L2-248h35l83 218 83-218h36" id="ab"/><path d="M-5 72V49h209v23H-5" id="ac"/><path d="M30-248c118-7 216 8 213 122C240-48 200 0 122 0H30v-248zM63-27c89 8 146-16 146-99s-60-101-146-95v194" id="ad"/><path d="M33 0v-248h34V0H33" id="ae"/><g id="o"><use transform="matrix(0.05,0,0,0.05,0,0)" xlink:href="#H"/><use transform="matrix(0.05,0,0,0.05,12.950000000000001,0)" xlink:href="#aa"/><use transform="matrix(0.05,0,0,0.05,24.950000000000003,0)" xlink:href="#ab"/><use transform="matrix(0.05,0,0,0.05,36.95,0)" xlink:href="#C"/><use transform="matrix(0.05,0,0,0.05,48.95,0)" xlink:href="#ac"/><use transform="matrix(0.05,0,0,0.05,58.95,0)" xlink:href="#ad"/><use transform="matrix(0.05,0,0,0.05,71.9,0)" xlink:href="#ae"/><use transform="matrix(0.05,0,0,0.05,76.9,0)" xlink:href="#V"/><use transform="matrix(0.05,0,0,0.05,87.85000000000001,0)" xlink:href="#V"/></g><path fill="#fff" d="M27 0v-27h64v-190l-56 39v-29l58-41h29v221h61V0H27" id="af"/><use transform="matrix(0.03703703703703704,0,0,0.03703703703703704,0,0)" xlink:href="#af" id="p"/><path fill="#fff" d="M101-251c82-7 93 87 43 132L82-64C71-53 59-42 53-27h129V0H18c2-99 128-94 128-182 0-28-16-43-45-43s-46 15-49 41l-32-3c6-41 34-60 81-64" id="ag"/><use transform="matrix(0.03703703703703704,0,0,0.03703703703703704,0,0)" xlink:href="#ag" id="q"/><path fill="#fff" d="M126-127c33 6 58 20 58 59 0 88-139 92-164 29-3-8-5-16-6-25l32-3c6 27 21 44 54 44 32 0 52-15 52-46 0-38-36-46-79-43v-28c39 1 72-4 72-42 0-27-17-43-46-43-28 0-47 15-49 41l-32-3c6-42 35-63 81-64 48-1 79 21 79 65 0 36-21 52-52 59" id="ah"/><use transform="matrix(0.03703703703703704,0,0,0.03703703703703704,0,0)" xlink:href="#ah" id="r"/><path fill="#fff" d="M155-56V0h-30v-56H8v-25l114-167h33v167h35v25h-35zm-30-156c-27 46-58 90-88 131h88v-131" id="ai"/><use transform="matrix(0.03703703703703704,0,0,0.03703703703703704,0,0)" xlink:href="#ai" id="s"/></defs></g></svg>