<?xml version="1.0" encoding="UTF-8"?>
<svg width="1146px" height="462px" viewBox="0 0 1146 462" version="1.1" xmlns="http://www.w3.org/2000/svg" xmlns:xlink="http://www.w3.org/1999/xlink" style="background: #FFFFFF;">
    <!-- Generator: Sketch 57.1 (83088) - https://sketch.com -->
    <title>static-auth-provider</title>
    <desc>Created with Sketch.</desc>
    <g id="static-auth-provider" stroke="none" stroke-width="1" fill="none" fill-rule="evenodd">
        <g>
            <g id="Text" transform="translate(564.000000, 23.000000)">
                <text id="Sync-Gateway" font-family="Helvetica" font-size="21" font-weight="normal" letter-spacing="-0.129230766" fill="#000000">
                    <tspan x="30.0790955" y="35">Sync Gateway</tspan>
                </text>
                <rect id="Rectangle" stroke="#000000" x="0.5" y="0.5" width="193" height="54"></rect>
            </g>
            <g id="Text" transform="translate(884.000000, 23.000000)">
                <text id="Auth-Server" font-family="Helvetica" font-size="21" font-weight="normal" letter-spacing="-0.129230766" fill="#000000">
                    <tspan x="42.2678981" y="30">Auth Server</tspan>
                </text>
                <rect id="Rectangle" stroke="#000000" x="0.5" y="0.5" width="193" height="54"></rect>
                <text id="(Facebook/Google)" font-family="Helvetica" font-size="13" font-weight="normal" letter-spacing="-0.0799999982" fill="#000000">
                    <tspan x="42.5396191" y="45">(Facebook/Google)</tspan>
                </text>
            </g>
            <g id="Text" transform="translate(243.000000, 23.000000)">
                <text id="Mobile-App" font-family="Helvetica" font-size="21" font-weight="normal" letter-spacing="-0.129230766" fill="#000000">
                    <tspan x="45.6896109" y="35">Mobile App</tspan>
                </text>
                <rect id="Rectangle" stroke="#000000" x="0.5" y="0.5" width="193" height="54"></rect>
            </g>
            <path d="M339,128.5 L339,433.542969" id="Line" stroke="#000000" stroke-width="2" stroke-linecap="square"></path>
            <path d="M660,128.5 L660,433.542969" id="Line" stroke="#000000" stroke-width="2" stroke-linecap="square"></path>
            <path d="M982,128.5 L982,433.542969" id="Line" stroke="#000000" stroke-width="2" stroke-linecap="square"></path>
            <path id="Line-2" d="M642.5,156 L661.5,165.5 L642.5,175 L642.5,167 L338.5,167 L338.5,164 L642.5,164 L642.5,156 Z" fill="#000000" fill-rule="nonzero"></path>
            <path id="Line-2" d="M320.5,136 L339.5,145.5 L320.5,155 L320.5,147 L262,147 L262,144 L320.5,144 L320.5,136 Z" fill="#000000" fill-rule="nonzero"></path>
            <path id="Line-2" d="M356.5,256 L356.5,264 L660.5,264 L660.5,267 L356.5,267 L356.5,275 L337.5,265.5 L356.5,256 Z" fill="#000000" fill-rule="nonzero"></path>
            <path id="Line-2" d="M640.5,396 L659.5,405.5 L640.5,415 L640.5,407 L356.5,407 L356.5,415 L337.5,405.5 L356.5,396 L356.5,404 L640.5,404 L640.5,396 Z" fill="#000000" fill-rule="nonzero"></path>
            <path id="Line-2" d="M963.5,196 L982.5,205.5 L963.5,215 L963.5,207 L659.5,207 L659.5,204 L963.5,204 L963.5,196 Z" fill="#000000" fill-rule="nonzero"></path>
            <path id="Line-2" d="M678.5,216 L678.5,224 L982.5,224 L982.5,227 L678.5,227 L678.5,235 L659.5,225.5 L678.5,216 Z" fill="#000000" fill-rule="nonzero"></path>
            <text id="POST-/{db}/_facebook" font-family="Helvetica" font-size="17" font-weight="normal" letter-spacing="-0.104615382" fill="#000000">
                <tspan x="407" y="132">POST /{db}/_facebook </tspan>
                <tspan x="578.397315" y="132" font-family="Helvetica-Oblique, Helvetica" font-style="italic">or</tspan>
                <tspan x="593.303807" y="132"></tspan>
                <tspan x="407" y="152">POST /{db}/_google</tspan>
            </text>
            <text id="User-authenticates-w" font-family="Helvetica" font-size="17" font-weight="normal" letter-spacing="-0.104615382" fill="#000000">
                <tspan x="75.5694681" y="132">User authenticates</tspan>
                <tspan x="58.301404" y="152">with Auth Provider SDK</tspan>
                <tspan x="50.4065692" y="172">and App retrieves a token</tspan>
            </text>
            <text id="Use-session-ID-in-Co" font-family="Helvetica" font-size="17" font-weight="normal" letter-spacing="-0.104615382" fill="#000000">
                <tspan x="435.752756" y="372">Use session ID in</tspan>
                <tspan x="402.186172" y="392">Couchbase Lite replication</tspan>
            </text>
            <text id="Sends-back-session-I" font-family="Helvetica" font-size="17" font-weight="normal" letter-spacing="-0.104615382" fill="#000000">
                <tspan x="415.137524" y="252">Sends back session ID</tspan>
            </text>
            <text id="Verify-Token" font-family="Helvetica" font-size="17" font-weight="normal" letter-spacing="-0.104615382" fill="#000000">
                <tspan x="774.471198" y="192">Verify Token</tspan>
            </text>
        </g>
    </g>
</svg>