<?xml version="1.0" encoding="UTF-8"?>
<svg width="649px" height="499px" viewBox="0 0 649 499" version="1.1" xmlns="http://www.w3.org/2000/svg" xmlns:xlink="http://www.w3.org/1999/xlink">
    <title>access-control-triangle@2x</title>
    <defs>
        <rect id="path-1" x="0" y="0" width="58.6956522" height="53.4782609"></rect>
        <rect id="path-3" x="0" y="0" width="58.6956522" height="53.4782609"></rect>
        <rect id="path-5" x="0" y="0" width="60" height="60"></rect>
        <rect id="path-7" x="0" y="0" width="60" height="60"></rect>
        <rect id="path-9" x="0" y="0" width="60" height="100"></rect>
    </defs>
    <g id="conceptual-diagrams" stroke="none" stroke-width="1" fill="none" fill-rule="evenodd">
        <g id="customArtboard" transform="translate(-24.000000, -49.000000)">
            <g id="Group" transform="translate(24.000000, 49.000000)">
                <path d="M324.5,0.917152693 L648.078425,498.5 L0.921575248,498.5 L324.5,0.917152693 Z" id="Triangle" stroke="#979797" fill-opacity="0.16" fill="#D0D0F2"></path>
                <g id="Arrow--User-to-Role" transform="translate(147.000000, 437.000000)">
                    <text id="Sync-Gateway---text" font-family="Arial-BoldMT, Arial" font-size="18" font-weight="bold" fill="#504D4D">
                        <tspan x="116.491211" y="16">Assigned</tspan>
                    </text>
                    <path id="Line-5" d="M330.5,-2 C332.985281,-2 335,0.0147186259 335,2.5 C335,4.98528137 332.985281,7 330.5,7 C328.183966,7 326.276586,5.25034205 326.027543,3.00070744 L9,3 L9,7 L0,2.5 L9,-2 L9,2 L326.027432,2.00029704 C326.276019,-0.249821203 328.183621,-2 330.5,-2 Z M330.5,-1 C328.567003,-1 327,0.567003376 327,2.5 C327,4.43299662 328.567003,6 330.5,6 C332.432997,6 334,4.43299662 334,2.5 C334,0.567003376 332.432997,-1 330.5,-1 Z" fill="#87C5DC" fill-rule="nonzero"></path>
                </g>
                <g transform="translate(50.000000, 379.000000)" id="Labelled-Circle">
                    <circle id="Oval" stroke="#979797" fill="#D8D8D8" cx="60" cy="60" r="59.5"></circle>
                    <text id="Sync-Gateway---text" font-family="Arial-BoldMT, Arial" font-size="18" font-weight="bold" fill="#DC0E0E">
                        <tspan x="39.9873047" y="27.7391304">User</tspan>
                    </text>
                    <g id="user-/-user" transform="translate(31.304348, 54.782609)">
                        <mask id="mask-2" fill="white">
                            <use xlink:href="#path-1"></use>
                        </mask>
                        <g id="user-/-user-(Background/Mask)"></g>
                        <path d="M17.1195652,15.5978261 C17.1195652,21.7411412 22.6051631,26.7391304 29.3478261,26.7391304 C36.0904891,26.7391304 41.576087,21.7411412 41.576087,15.5978261 C41.576087,9.45451094 36.0904891,4.45652174 29.3478261,4.45652174 C22.6051631,4.45652174 17.1195652,9.45451094 17.1195652,15.5978261 Z M22.0108696,15.5978261 C22.0108696,11.9122825 25.3027173,8.91304348 29.3478261,8.91304348 C33.3929349,8.91304348 36.6847826,11.9122825 36.6847826,15.5978261 C36.6847826,19.2833697 33.3929349,22.2826087 29.3478261,22.2826087 C25.3027173,22.2826087 22.0108696,19.2833697 22.0108696,15.5978261 Z M51.3586957,44.5652174 C51.3586957,35.9663588 43.6769021,28.9673913 34.2391304,28.9673913 L24.4565217,28.9673913 C15.0163046,28.9673913 7.33695652,35.9663588 7.33695652,44.5652174 L7.33695652,46.7934783 L12.2282609,46.7934783 L12.2282609,44.5652174 C12.2282609,38.4219022 17.7138588,33.423913 24.4565217,33.423913 L34.2391304,33.423913 C40.9817934,33.423913 46.4673913,38.4219022 46.4673913,44.5652174 L46.4673913,46.7934783 L51.3586957,46.7934783 L51.3586957,44.5652174 Z" fill="#2E3A59" mask="url(#mask-2)"></path>
                    </g>
                </g>
                <g transform="translate(478.000000, 379.000000)">
                    <circle id="Oval" stroke="#979797" fill="#D8D8D8" cx="60" cy="60" r="59.5"></circle>
                    <text id="Sync-Gateway---text" font-family="Arial-BoldMT, Arial" font-size="18" font-weight="bold" fill="#DC0E0E">
                        <tspan x="40.4970703" y="27.7391304">Role</tspan>
                    </text>
                    <g transform="translate(31.304348, 54.782609)" id="user-/-id_card">
                        <mask id="mask-4" fill="white">
                            <use xlink:href="#path-3"></use>
                        </mask>
                        <g id="user-/-id_card-(Background/Mask)"></g>
                        <path d="M28.6508809,22.2826087 C28.6508809,19.7178804 26.5745223,17.826087 23.7595765,17.826087 C20.9446308,17.826087 18.8682722,19.7178804 18.8682722,22.2826087 C18.8682722,24.847337 20.9421854,26.7391304 23.7595765,26.7391304 C26.5745223,26.7391304 28.6508809,24.847337 28.6508809,22.2826087 Z M34.2391304,20.0543478 L34.2391304,24.5108696 L44.0217391,24.5108696 L44.0217391,20.0543478 L34.2391304,20.0543478 Z M36.6847826,28.9673913 L36.6847826,33.423913 L44.0217391,33.423913 L44.0217391,28.9673913 L36.6847826,28.9673913 Z M32.8451094,35.6521739 L14.673913,35.6521739 C14.673913,32.5905444 18.7728264,28.4103261 23.7595112,28.4103261 C28.7461949,28.4103261 32.8451094,32.5905444 32.8451094,35.6521739 Z M48.9130435,8.91304348 L9.7826087,8.91304348 C7.08505424,8.91304348 4.89130435,10.7870108 4.89130435,13.0910326 L4.89130435,40.3872283 C4.89130435,42.6912509 7.08505424,44.5652174 9.7826087,44.5652174 L48.9130435,44.5652174 C51.6105994,44.5652174 53.8043478,42.6912509 53.8043478,40.3872283 L53.8043478,13.0910326 C53.8043478,10.7870108 51.6105994,8.91304348 48.9130435,8.91304348 L48.9130435,8.91304348 Z M48.9130435,40.1086957 L9.7826087,40.0841855 L9.7826087,13.3695652 L48.9130435,13.3940764 L48.9130435,40.1086957 L48.9130435,40.1086957 Z" fill="#2E3A59" mask="url(#mask-4)"></path>
                    </g>
                </g>
                <g id="Box--Channel" transform="translate(225.000000, 195.000000)">
                    <rect id="Rectangle" stroke="#979797" fill="#D8D8D8" x="0.5" y="0.5" width="185" height="99" rx="8"></rect>
                    <g id="media-/-shuffle" transform="translate(67.000000, 40.000000)">
                        <mask id="mask-6" fill="white">
                            <use xlink:href="#path-5"></use>
                        </mask>
                        <g id="media-/-shuffle-(Background/Mask)"></g>
                        <path d="M26.4750004,22.9250002 L13.5249999,10 L10,13.5249999 L22.9250002,26.4499998 L26.4750004,22.9250002 L26.4750004,22.9250002 Z M36.25,10 L41.3499999,15.0999999 L10,46.4750004 L13.5249999,50 L44.9000001,18.6500001 L50,23.75 L50,10 L36.25,10 L36.25,10 Z M33.5500002,37.0499992 L37.0749998,33.5249996 L44.9000001,41.3499999 L50,36.25 L50,50 L36.25,50 L41.3750005,44.8749995 L33.5500002,37.0499992 L33.5500002,37.0499992 Z" fill="#2E3A59" mask="url(#mask-6)"></path>
                    </g>
                    <text id="Sync-Gateway---text" font-family="Arial-BoldMT, Arial" font-size="18" font-weight="bold" fill="#DC0E0E">
                        <tspan x="56.996582" y="16">Channel</tspan>
                    </text>
                </g>
                <g transform="translate(292.000000, 48.000000)">
                    <rect id="Rectangle" stroke="#979797" fill="#EEE0C3" x="0.5" y="0.5" width="64" height="99" rx="8"></rect>
                    <g transform="translate(2.500000, 40.000000)" id="file-/-note">
                        <mask id="mask-8" fill="white">
                            <use xlink:href="#path-7"></use>
                        </mask>
                        <g id="file-/-note-(Background/Mask)"></g>
                        <path d="M12.5,7.5 C9.74249989,7.5 7.5,9.74249989 7.5,12.5 L7.5,47.5 C7.5,50.2575001 9.74249989,52.5 12.5,52.5 L32.5,52.5 C32.8275,52.5 33.1499989,52.4349995 33.4524989,52.3099995 C33.7549989,52.1849995 34.0324995,52.0025018 34.2674994,51.7675018 L51.7675018,34.2674994 C51.9825018,34.0524994 52.1349997,33.7999989 52.2574997,33.5349989 C52.2924997,33.4599989 52.3125021,33.3825003 52.3400021,33.3025002 C52.4100021,33.0925003 52.4549988,32.8775007 52.4674988,32.6550007 C52.4724988,32.6025007 52.5,32.5525 52.5,32.5 L52.5,12.5 C52.5,9.74249989 50.2575001,7.5 47.5,7.5 L12.5,7.5 Z M47.5,12.5 L47.5,30 L32.5,30 C31.1175001,30 30,31.12 30,32.5 L30,47.5 L12.5,47.5 L12.5,12.5 L47.5,12.5 Z M35,35 L43.9650011,35 L35,43.9650011 L35,35 Z" fill="#2E3A59" mask="url(#mask-8)"></path>
                    </g>
                    <text id="Sync-Gateway---text" font-family="Arial-BoldMT, Arial" font-size="18" font-weight="bold" fill="#DC0E0E">
                        <tspan x="15.4975586" y="19">Doc</tspan>
                    </text>
                </g>
                <g transform="translate(411.000000, 296.000000)" id="Arrow--Role-to-Channe">
                    <path id="Line-3" d="M0.034299917,0.077035213 L10.0382031,1.15958792 L7.874,4.524 L123.949241,79.1607428 C125.375294,77.4025486 127.926409,76.9621431 129.874774,78.2149493 C131.9652,79.5591008 132.570175,82.3433759 131.226023,84.4338017 C129.881871,86.5242275 127.097596,87.1292023 125.00717,85.7850507 C123.059114,84.532443 122.401064,82.0291921 123.408266,80.0022863 L7.333,5.365 L5.17059968,8.72968941 L0.034299917,0.077035213 Z M124.716882,79.8019603 L124.312859,80.4293594 C123.517403,82.0087967 124.027453,83.9662012 125.548015,84.9439284 C127.173902,85.9893796 129.339449,85.5188436 130.384901,83.8929569 C131.430352,82.2670702 130.959816,80.1015229 129.333929,79.0560716 C127.814747,78.0792318 125.824414,78.4259248 124.716882,79.8019603 Z" fill="#87C5DC" fill-rule="nonzero"></path>
                    <text id="Sync-Gateway---text" font-family="Arial-BoldMT, Arial" font-size="18" font-weight="bold" fill="#504D4D">
                        <tspan x="63.9472656" y="16">Access</tspan>
                    </text>
                </g>
                <g id="Arrow--Doc-to-Channel" transform="translate(292.500000, 120.000000)">
                    <text id="Sync-Gateway---text" font-family="Arial-BoldMT, Arial" font-size="18" font-weight="bold" fill="#504D4D">
                        <tspan x="38.9912109" y="43">Assigned</tspan>
                    </text>
                    <g id="arrow-/-thin_long_02_down">
                        <mask id="mask-10" fill="white">
                            <use xlink:href="#path-9"></use>
                        </mask>
                        <g id="arrow-/-thin_long_02_down-(Background/Mask)"></g>
                        <path d="M46.6667599,57.4999994 L59.1666647,49.9999994 L46.6666649,42.4999994 L43.7203835,44.2677643 L51.1909831,48.7501212 L0.833331348,48.750118 L0.833331348,51.250118 L51.1906016,51.2501206 L43.7204785,55.7322303 L46.6667599,57.4999994 Z" fill="#2E3A59" fill-rule="nonzero" mask="url(#mask-10)" transform="translate(29.999998, 49.999999) rotate(90.000003) translate(-29.999998, -49.999999) "></path>
                    </g>
                </g>
                <g transform="translate(110.000000, 295.500000)" id="Arrow--User-to-Channel">
                    <g id="Labelled-Arrow" transform="translate(-0.000000, 0.355932)">
                        <path id="Line-3" d="M-0.403848792,-0.294798496 L9.51861593,1.37693531 L7.16,4.607 L111.267306,80.6035246 C112.794744,78.9326062 115.367461,78.6436773 117.238424,80.0094287 C119.24578,81.4747431 119.685191,84.2898985 118.219877,86.2972543 C116.754562,88.30461 113.939407,88.7440213 111.932051,87.2787069 C110.061244,85.913069 109.55232,83.3749872 110.677904,81.4110609 L6.57,5.415 L4.212243,8.64621356 L-0.403848792,-0.294798496 Z M112.0642,81.2156331 L111.503369,81.9842424 C110.684274,83.5005155 111.090895,85.4265991 112.521648,86.4710093 C114.082925,87.6106983 116.27249,87.268934 117.412179,85.7076573 C118.551868,84.1463806 118.210104,81.9568152 116.648827,80.8171263 C115.217689,79.7724349 113.258638,79.9725197 112.0642,81.2156331 Z" fill="#87C5DC" fill-rule="nonzero"></path>
                        <text id="Sync-Gateway---text" font-family="Arial-BoldMT, Arial" font-size="18" font-weight="bold" fill="#504D4D">
                            <tspan x="2.24985659" y="16.3440678">Access</tspan>
                        </text>
                    </g>
                </g>
            </g>
        </g>
    </g>
</svg>